<svg width="100%" viewBox="0 0 680 480" xmlns="http://www.w3.org/2000/svg">
<defs>
<marker id="arrow" viewBox="0 0 10 10" refX="8" refY="5" markerWidth="6" markerHeight="6" orient="auto-start-reverse"><path d="M2 1L8 5L2 9" fill="none" stroke="context-stroke" stroke-width="1.5" stroke-linecap="round" stroke-linejoin="round"/></marker>
</defs>

<!-- Sky / Directory label -->
<text x="340" y="24" text-anchor="middle" opacity="0.4" font-family="-apple-system, BlinkMacSystemFont, sans-serif" font-size="12" fill="#c2c0b6">sky . directory . how lands find each other</text>

<!-- Canopy connection -->
<path d="M200 70 C200 45, 480 45, 480 70" fill="none" stroke="#5DCAA5" stroke-width="1.5" stroke-dasharray="6 4"/>
<text x="340" y="52" text-anchor="middle" font-family="-apple-system, BlinkMacSystemFont, sans-serif" font-size="12" fill="#5DCAA5">canopy . direct proxy . programmatic</text>

<!-- Land A -->
<text x="170" y="300" text-anchor="middle" font-family="-apple-system, BlinkMacSystemFont, sans-serif" font-size="14" font-weight="500" fill="#faf9f5">Land A</text>

<!-- Tree 1 -->
<line x1="110" y1="270" x2="110" y2="170" stroke="#9c9a92" stroke-width="2" stroke-linecap="round"/>
<line x1="110" y1="200" x2="80" y2="160" stroke="#9c9a92" stroke-width="1.5" stroke-linecap="round"/>
<line x1="110" y1="200" x2="140" y2="155" stroke="#9c9a92" stroke-width="1.5" stroke-linecap="round"/>
<line x1="110" y1="170" x2="95" y2="130" stroke="#9c9a92" stroke-width="1" stroke-linecap="round"/>
<line x1="110" y1="170" x2="125" y2="125" stroke="#9c9a92" stroke-width="1" stroke-linecap="round"/>
<ellipse cx="110" cy="120" rx="50" ry="35" fill="#1D9E75" opacity="0.15" stroke="#1D9E75" stroke-width="0.5" stroke-opacity="0.3"/>
<circle cx="80" cy="160" r="4" fill="#5DCAA5"/>
<circle cx="140" cy="155" r="4" fill="#5DCAA5"/>
<circle cx="95" cy="130" r="4" fill="#5DCAA5"/>
<circle cx="125" cy="125" r="4" fill="#5DCAA5"/>
<circle cx="110" cy="270" r="6" fill="#EF9F27" stroke="#BA7517" stroke-width="0.5"/>

<!-- Tree 2 -->
<line x1="220" y1="270" x2="220" y2="190" stroke="#9c9a92" stroke-width="1.5" stroke-linecap="round"/>
<line x1="220" y1="220" x2="200" y2="185" stroke="#9c9a92" stroke-width="1" stroke-linecap="round"/>
<line x1="220" y1="220" x2="245" y2="180" stroke="#9c9a92" stroke-width="1" stroke-linecap="round"/>
<ellipse cx="220" cy="165" rx="38" ry="28" fill="#1D9E75" opacity="0.12" stroke="#1D9E75" stroke-width="0.5" stroke-opacity="0.25"/>
<circle cx="200" cy="185" r="3.5" fill="#5DCAA5"/>
<circle cx="245" cy="180" r="3.5" fill="#5DCAA5"/>
<circle cx="220" cy="270" r="5" fill="#EF9F27" stroke="#BA7517" stroke-width="0.5"/>

<!-- .flow Land A -->
<rect x="50" y="330" width="240" height="40" rx="6" fill="#378ADD" opacity="0.08"/>
<rect x="50" y="330" width="240" height="40" rx="6" fill="none" stroke="#378ADD" stroke-width="0.5" stroke-opacity="0.3"/>
<text x="170" y="354" text-anchor="middle" font-family="-apple-system, BlinkMacSystemFont, sans-serif" font-size="12" fill="#378ADD">.flow</text>

<!-- Roots into .flow A -->
<path d="M110 276 Q110 310, 100 340" fill="none" stroke="#9c9a92" stroke-width="0.8" opacity="0.4" stroke-dasharray="3 3"/>
<path d="M110 276 Q120 310, 130 345" fill="none" stroke="#9c9a92" stroke-width="0.8" opacity="0.4" stroke-dasharray="3 3"/>
<path d="M220 275 Q215 310, 200 342" fill="none" stroke="#9c9a92" stroke-width="0.8" opacity="0.4" stroke-dasharray="3 3"/>
<path d="M220 275 Q230 310, 240 340" fill="none" stroke="#9c9a92" stroke-width="0.8" opacity="0.4" stroke-dasharray="3 3"/>

<!-- Water drops A -->
<circle cx="90" cy="345" r="2" fill="#378ADD" opacity="0.5"/>
<circle cx="140" cy="350" r="2.5" fill="#378ADD" opacity="0.4"/>
<circle cx="195" cy="342" r="2" fill="#378ADD" opacity="0.6"/>
<circle cx="250" cy="348" r="1.5" fill="#378ADD" opacity="0.3"/>

<!-- Land B -->
<text x="510" y="300" text-anchor="middle" font-family="-apple-system, BlinkMacSystemFont, sans-serif" font-size="14" font-weight="500" fill="#faf9f5">Land B</text>

<!-- Tree 3 -->
<line x1="480" y1="270" x2="480" y2="155" stroke="#9c9a92" stroke-width="2" stroke-linecap="round"/>
<line x1="480" y1="210" x2="450" y2="170" stroke="#9c9a92" stroke-width="1.5" stroke-linecap="round"/>
<line x1="480" y1="210" x2="510" y2="165" stroke="#9c9a92" stroke-width="1.5" stroke-linecap="round"/>
<line x1="480" y1="180" x2="460" y2="140" stroke="#9c9a92" stroke-width="1" stroke-linecap="round"/>
<line x1="480" y1="180" x2="500" y2="135" stroke="#9c9a92" stroke-width="1" stroke-linecap="round"/>
<line x1="480" y1="155" x2="480" y2="110" stroke="#9c9a92" stroke-width="0.8" stroke-linecap="round"/>
<ellipse cx="480" cy="115" rx="55" ry="40" fill="#1D9E75" opacity="0.15" stroke="#1D9E75" stroke-width="0.5" stroke-opacity="0.3"/>
<circle cx="450" cy="170" r="4" fill="#5DCAA5"/>
<circle cx="510" cy="165" r="4" fill="#5DCAA5"/>
<circle cx="460" cy="140" r="4" fill="#5DCAA5"/>
<circle cx="500" cy="135" r="4" fill="#5DCAA5"/>
<circle cx="480" cy="110" r="3" fill="#5DCAA5"/>
<circle cx="480" cy="270" r="6" fill="#EF9F27" stroke="#BA7517" stroke-width="0.5"/>

<!-- .flow Land B -->
<rect x="390" y="330" width="240" height="40" rx="6" fill="#378ADD" opacity="0.08"/>
<rect x="390" y="330" width="240" height="40" rx="6" fill="none" stroke="#378ADD" stroke-width="0.5" stroke-opacity="0.3"/>
<text x="510" y="354" text-anchor="middle" font-family="-apple-system, BlinkMacSystemFont, sans-serif" font-size="12" fill="#378ADD">.flow</text>

<!-- Roots into .flow B -->
<path d="M480 276 Q475 310, 460 342" fill="none" stroke="#9c9a92" stroke-width="0.8" opacity="0.4" stroke-dasharray="3 3"/>
<path d="M480 276 Q490 310, 510 345" fill="none" stroke="#9c9a92" stroke-width="0.8" opacity="0.4" stroke-dasharray="3 3"/>

<!-- Water drops B -->
<circle cx="440" cy="348" r="2" fill="#378ADD" opacity="0.5"/>
<circle cx="500" cy="342" r="2.5" fill="#378ADD" opacity="0.4"/>
<circle cx="560" cy="350" r="1.5" fill="#378ADD" opacity="0.3"/>

<!-- Signal flow between lands -->
<path d="M290 355 C320 380, 360 380, 390 355" fill="none" stroke="#378ADD" stroke-width="1" stroke-dasharray="4 4" opacity="0.4"/>
<text x="340" y="395" text-anchor="middle" font-family="-apple-system, BlinkMacSystemFont, sans-serif" font-size="12" fill="#378ADD" opacity="0.5">signals flow through network</text>

<!-- Canopy touching trees -->
<path d="M160 100 C180 75, 440 75, 460 100" fill="none" stroke="#1D9E75" stroke-width="0.5" opacity="0.25"/>

<!-- Bottom labels -->
<text x="340" y="430" text-anchor="middle" opacity="0.35" font-family="-apple-system, BlinkMacSystemFont, sans-serif" font-size="12" fill="#c2c0b6">canopy is the direct pipe . request, response, done</text>
<text x="340" y="448" text-anchor="middle" opacity="0.35" font-family="-apple-system, BlinkMacSystemFont, sans-serif" font-size="12" fill="#c2c0b6">.flow is the water table . trees pull what they need</text>
<text x="340" y="466" text-anchor="middle" opacity="0.35" font-family="-apple-system, BlinkMacSystemFont, sans-serif" font-size="12" fill="#c2c0b6">the AI at each node is photosynthesis . raw signal becomes structure</text>

</svg>
